<mxfile host="app.diagrams.net" agent="Mozilla/5.0 (Macintosh; Intel Mac OS X 10_15_7) AppleWebKit/605.1.15 (KHTML, like Gecko) Version/18.0 Safari/605.1.15" version="25.0.1">
  <diagram name="Page-1" id="HGpFZIgrX5HXIKhn64qT">
    <mxGraphModel dx="1363" dy="924" grid="1" gridSize="10" guides="1" tooltips="1" connect="1" arrows="1" fold="1" page="1" pageScale="1" pageWidth="827" pageHeight="1169" math="0" shadow="0">
      <root>
        <mxCell id="0" />
        <mxCell id="1" parent="0" />
        <mxCell id="73OWAqlcFQXWZOg_Nexa-21" style="edgeStyle=orthogonalEdgeStyle;rounded=0;orthogonalLoop=1;jettySize=auto;html=1;exitX=1;exitY=0.5;exitDx=0;exitDy=0;entryX=0;entryY=0.25;entryDx=0;entryDy=0;endArrow=diamondThin;endFill=0;startSize=14;endSize=20;" edge="1" parent="1" source="73OWAqlcFQXWZOg_Nexa-3" target="73OWAqlcFQXWZOg_Nexa-18">
          <mxGeometry relative="1" as="geometry" />
        </mxCell>
        <mxCell id="73OWAqlcFQXWZOg_Nexa-3" value="&lt;p style=&quot;margin:0px;margin-top:4px;text-align:center;&quot;&gt;&lt;b&gt;&lt;i&gt;interface&lt;/i&gt; IAgent&amp;nbsp;&lt;/b&gt;&lt;/p&gt;&lt;hr size=&quot;1&quot; style=&quot;border-style:solid;&quot;&gt;&lt;p style=&quot;margin:0px;margin-left:4px;&quot;&gt;&lt;/p&gt;&lt;p style=&quot;margin:0px;margin-left:4px;&quot;&gt;+Percept()&lt;/p&gt;&lt;p style=&quot;margin:0px;margin-left:4px;&quot;&gt;+Deliberate()&lt;/p&gt;&lt;p style=&quot;margin:0px;margin-left:4px;&quot;&gt;+Act()&lt;/p&gt;&lt;p style=&quot;margin:0px;margin-left:4px;&quot;&gt;+ID() AgentID&lt;/p&gt;&lt;p style=&quot;margin:0px;margin-left:4px;&quot;&gt;&lt;span class=&quot;&quot;&gt;+GetSyncChan() &lt;/span&gt;&lt;span class=&quot;hljs-keyword&quot;&gt;chan&lt;/span&gt;&lt;span class=&quot;&quot;&gt; &lt;/span&gt;&lt;span class=&quot;hljs-type&quot;&gt;bool&lt;/span&gt;&lt;/p&gt;&lt;p style=&quot;margin:0px;margin-left:4px;&quot;&gt;&lt;span class=&quot;&quot;&gt;+ToJsonObj() &lt;/span&gt;&lt;span class=&quot;hljs-keyword&quot;&gt;interface&lt;/span&gt;&lt;span class=&quot;&quot;&gt;{}&lt;/span&gt;&lt;/p&gt;" style="verticalAlign=top;align=left;overflow=fill;html=1;whiteSpace=wrap;" vertex="1" parent="1">
          <mxGeometry x="70" y="220" width="170" height="120" as="geometry" />
        </mxCell>
        <mxCell id="73OWAqlcFQXWZOg_Nexa-19" style="edgeStyle=orthogonalEdgeStyle;rounded=0;orthogonalLoop=1;jettySize=auto;html=1;exitX=0.5;exitY=0;exitDx=0;exitDy=0;entryX=0.5;entryY=1;entryDx=0;entryDy=0;" edge="1" parent="1" source="73OWAqlcFQXWZOg_Nexa-8" target="73OWAqlcFQXWZOg_Nexa-18">
          <mxGeometry relative="1" as="geometry" />
        </mxCell>
        <mxCell id="73OWAqlcFQXWZOg_Nexa-8" value="BeeAgent" style="swimlane;fontStyle=1;align=center;verticalAlign=top;childLayout=stackLayout;horizontal=1;startSize=26;horizontalStack=0;resizeParent=1;resizeParentMax=0;resizeLast=0;collapsible=1;marginBottom=0;whiteSpace=wrap;html=1;" vertex="1" parent="1">
          <mxGeometry x="240" y="460" width="160" height="172" as="geometry" />
        </mxCell>
        <mxCell id="73OWAqlcFQXWZOg_Nexa-9" value="&lt;div&gt;-Ruche : ruche&lt;br&gt;&lt;/div&gt;&lt;div&gt;-MaxPollen : int&lt;/div&gt;&lt;div&gt;-TypeBee : [ouvriÃ¨re, soldat]&lt;/div&gt;" style="text;strokeColor=none;fillColor=none;align=left;verticalAlign=top;spacingLeft=4;spacingRight=4;overflow=hidden;rotatable=0;points=[[0,0.5],[1,0.5]];portConstraint=eastwest;whiteSpace=wrap;html=1;" vertex="1" parent="73OWAqlcFQXWZOg_Nexa-8">
          <mxGeometry y="26" width="160" height="44" as="geometry" />
        </mxCell>
        <mxCell id="73OWAqlcFQXWZOg_Nexa-10" value="" style="line;strokeWidth=1;fillColor=none;align=left;verticalAlign=middle;spacingTop=-1;spacingLeft=3;spacingRight=3;rotatable=0;labelPosition=right;points=[];portConstraint=eastwest;strokeColor=inherit;" vertex="1" parent="73OWAqlcFQXWZOg_Nexa-8">
          <mxGeometry y="70" width="160" height="38" as="geometry" />
        </mxCell>
        <mxCell id="73OWAqlcFQXWZOg_Nexa-11" value="+ RecolterPollen()&lt;div&gt;+ ChercherFleur()&lt;/div&gt;&lt;div&gt;+ FuirFrelon()&lt;/div&gt;&lt;div&gt;+ PartagerPosition()&lt;/div&gt;" style="text;strokeColor=none;fillColor=none;align=left;verticalAlign=top;spacingLeft=4;spacingRight=4;overflow=hidden;rotatable=0;points=[[0,0.5],[1,0.5]];portConstraint=eastwest;whiteSpace=wrap;html=1;" vertex="1" parent="73OWAqlcFQXWZOg_Nexa-8">
          <mxGeometry y="108" width="160" height="64" as="geometry" />
        </mxCell>
        <mxCell id="73OWAqlcFQXWZOg_Nexa-20" value="" style="edgeStyle=orthogonalEdgeStyle;rounded=0;orthogonalLoop=1;jettySize=auto;html=1;" edge="1" parent="1" source="73OWAqlcFQXWZOg_Nexa-12" target="73OWAqlcFQXWZOg_Nexa-18">
          <mxGeometry relative="1" as="geometry" />
        </mxCell>
        <mxCell id="73OWAqlcFQXWZOg_Nexa-12" value="HornetAgent" style="swimlane;fontStyle=1;align=center;verticalAlign=top;childLayout=stackLayout;horizontal=1;startSize=26;horizontalStack=0;resizeParent=1;resizeParentMax=0;resizeLast=0;collapsible=1;marginBottom=0;whiteSpace=wrap;html=1;" vertex="1" parent="1">
          <mxGeometry x="430" y="460" width="160" height="90" as="geometry" />
        </mxCell>
        <mxCell id="73OWAqlcFQXWZOg_Nexa-14" value="" style="line;strokeWidth=1;fillColor=none;align=left;verticalAlign=middle;spacingTop=-1;spacingLeft=3;spacingRight=3;rotatable=0;labelPosition=right;points=[];portConstraint=eastwest;strokeColor=inherit;" vertex="1" parent="73OWAqlcFQXWZOg_Nexa-12">
          <mxGeometry y="26" width="160" height="8" as="geometry" />
        </mxCell>
        <mxCell id="73OWAqlcFQXWZOg_Nexa-15" value="+ ChasserAbeille()&lt;div&gt;+ Tuer()&lt;/div&gt;&lt;div&gt;+ Surveiller()&lt;/div&gt;" style="text;strokeColor=none;fillColor=none;align=left;verticalAlign=top;spacingLeft=4;spacingRight=4;overflow=hidden;rotatable=0;points=[[0,0.5],[1,0.5]];portConstraint=eastwest;whiteSpace=wrap;html=1;" vertex="1" parent="73OWAqlcFQXWZOg_Nexa-12">
          <mxGeometry y="34" width="160" height="56" as="geometry" />
        </mxCell>
        <mxCell id="73OWAqlcFQXWZOg_Nexa-32" style="edgeStyle=orthogonalEdgeStyle;rounded=0;orthogonalLoop=1;jettySize=auto;html=1;exitX=0.5;exitY=0;exitDx=0;exitDy=0;entryX=0.5;entryY=1;entryDx=0;entryDy=0;endArrow=diamondThin;endFill=1;endSize=16;" edge="1" parent="1" source="73OWAqlcFQXWZOg_Nexa-18" target="73OWAqlcFQXWZOg_Nexa-23">
          <mxGeometry relative="1" as="geometry" />
        </mxCell>
        <mxCell id="73OWAqlcFQXWZOg_Nexa-18" value="&lt;p style=&quot;margin:0px;margin-top:4px;text-align:center;&quot;&gt;&lt;i&gt;&amp;lt;&amp;lt;Abstract&amp;gt;&amp;gt;&lt;/i&gt;&lt;br&gt;&lt;b&gt;Agent&lt;/b&gt;&lt;/p&gt;&lt;hr size=&quot;1&quot; style=&quot;border-style:solid;&quot;&gt;&lt;div&gt;-Position : {X,Y}&lt;/div&gt;&lt;div&gt;-Vitesse : int&lt;/div&gt;&lt;hr size=&quot;1&quot; style=&quot;border-style:solid;&quot;&gt;&lt;p style=&quot;margin:0px;margin-left:4px;&quot;&gt;+ method1(Type): Type&lt;br&gt;+ method2(Type, Type): Type&lt;/p&gt;" style="verticalAlign=top;align=left;overflow=fill;html=1;whiteSpace=wrap;" vertex="1" parent="1">
          <mxGeometry x="320" y="220" width="190" height="140" as="geometry" />
        </mxCell>
        <mxCell id="73OWAqlcFQXWZOg_Nexa-22" value="&lt;p style=&quot;margin:0px;margin-top:4px;text-align:center;&quot;&gt;&lt;b&gt;Simulation&lt;/b&gt;&lt;/p&gt;&lt;hr size=&quot;1&quot; style=&quot;border-style:solid;&quot;&gt;&lt;p style=&quot;margin:0px;margin-left:4px;&quot;&gt;+ Env : environnement&lt;/p&gt;&lt;hr size=&quot;1&quot; style=&quot;border-style:solid;&quot;&gt;&lt;p style=&quot;margin:0px;margin-left:4px;&quot;&gt;+ Run()&lt;/p&gt;&lt;p style=&quot;margin:0px;margin-left:4px;&quot;&gt;+ Log()&lt;/p&gt;&lt;p style=&quot;margin:0px;margin-left:4px;&quot;&gt;+ Print()&lt;/p&gt;" style="verticalAlign=top;align=left;overflow=fill;html=1;whiteSpace=wrap;" vertex="1" parent="1">
          <mxGeometry x="75" y="35" width="160" height="100" as="geometry" />
        </mxCell>
        <mxCell id="73OWAqlcFQXWZOg_Nexa-25" style="edgeStyle=orthogonalEdgeStyle;rounded=0;orthogonalLoop=1;jettySize=auto;html=1;exitX=0;exitY=0.5;exitDx=0;exitDy=0;endArrow=diamondThin;endFill=1;endSize=16;" edge="1" parent="1" source="73OWAqlcFQXWZOg_Nexa-23" target="73OWAqlcFQXWZOg_Nexa-22">
          <mxGeometry relative="1" as="geometry" />
        </mxCell>
        <mxCell id="73OWAqlcFQXWZOg_Nexa-23" value="&lt;p style=&quot;margin:0px;margin-top:4px;text-align:center;&quot;&gt;&lt;b&gt;Environnement&lt;/b&gt;&lt;/p&gt;&lt;hr size=&quot;1&quot; style=&quot;border-style:solid;&quot;&gt;&lt;p style=&quot;margin:0px;margin-left:4px;&quot;&gt;-Object: []Object&lt;/p&gt;&lt;p style=&quot;margin:0px;margin-left:4px;&quot;&gt;-Agent : []Agent&lt;/p&gt;&lt;hr size=&quot;1&quot; style=&quot;border-style:solid;&quot;&gt;&lt;p style=&quot;margin:0px;margin-left:4px;&quot;&gt;&lt;br&gt;&lt;/p&gt;" style="verticalAlign=top;align=left;overflow=fill;html=1;whiteSpace=wrap;" vertex="1" parent="1">
          <mxGeometry x="390" y="40" width="130" height="90" as="geometry" />
        </mxCell>
        <mxCell id="73OWAqlcFQXWZOg_Nexa-27" style="edgeStyle=orthogonalEdgeStyle;rounded=0;orthogonalLoop=1;jettySize=auto;html=1;exitX=0;exitY=0.5;exitDx=0;exitDy=0;endArrow=diamondThin;endFill=0;endSize=16;" edge="1" parent="1">
          <mxGeometry relative="1" as="geometry">
            <mxPoint x="900" y="85" as="sourcePoint" />
            <mxPoint x="810" y="85" as="targetPoint" />
          </mxGeometry>
        </mxCell>
        <mxCell id="73OWAqlcFQXWZOg_Nexa-28" value="&lt;p style=&quot;margin:0px;margin-top:4px;text-align:center;&quot;&gt;&lt;b&gt;&lt;font face=&quot;Helvetica&quot;&gt;&lt;i&gt;interface&lt;/i&gt; IObject&amp;nbsp;&lt;/font&gt;&lt;/b&gt;&lt;/p&gt;&lt;hr size=&quot;1&quot; style=&quot;border-style:solid;&quot;&gt;&lt;p style=&quot;margin:0px;margin-left:4px;&quot;&gt;&lt;/p&gt;&lt;pre lang=&quot;go&quot; class=&quot;code highlight&quot;&gt;&lt;font face=&quot;Helvetica&quot;&gt;&lt;span class=&quot;&quot;&gt;+Interact()&lt;/span&gt;&lt;br&gt;&lt;span class=&quot;&quot;&gt;+Copy() Object&lt;/span&gt;&lt;br&gt;&lt;span class=&quot;&quot;&gt;+ChangeTo(Object)&lt;/span&gt;&lt;br&gt;&lt;span class=&quot;&quot;&gt;+ToJsonObj() &lt;/span&gt;&lt;span class=&quot;hljs-keyword&quot;&gt;interface&lt;/span&gt;&lt;span class=&quot;&quot;&gt;{}&lt;/span&gt;&lt;/font&gt;&lt;/pre&gt;" style="verticalAlign=top;align=left;overflow=fill;html=1;whiteSpace=wrap;" vertex="1" parent="1">
          <mxGeometry x="900" y="40" width="170" height="120" as="geometry" />
        </mxCell>
        <mxCell id="73OWAqlcFQXWZOg_Nexa-33" value="&lt;p style=&quot;margin:0px;margin-top:4px;text-align:center;&quot;&gt;&lt;i&gt;&amp;lt;&amp;lt;Abstract&amp;gt;&amp;gt;&lt;/i&gt;&lt;br&gt;&lt;b&gt;Object&lt;/b&gt;&lt;/p&gt;&lt;hr size=&quot;1&quot; style=&quot;border-style:solid;&quot;&gt;&lt;div&gt;-Position : {X,Y}&lt;/div&gt;&lt;div&gt;-Vitesse : int&lt;/div&gt;&lt;hr size=&quot;1&quot; style=&quot;border-style:solid;&quot;&gt;&lt;p style=&quot;margin:0px;margin-left:4px;&quot;&gt;&lt;br&gt;&lt;/p&gt;" style="verticalAlign=top;align=left;overflow=fill;html=1;whiteSpace=wrap;" vertex="1" parent="1">
          <mxGeometry x="620" y="40" width="190" height="90" as="geometry" />
        </mxCell>
        <mxCell id="73OWAqlcFQXWZOg_Nexa-34" style="edgeStyle=orthogonalEdgeStyle;rounded=0;orthogonalLoop=1;jettySize=auto;html=1;exitX=0;exitY=0.5;exitDx=0;exitDy=0;endArrow=diamondThin;endFill=1;endSize=16;entryX=1;entryY=0.5;entryDx=0;entryDy=0;" edge="1" parent="1" target="73OWAqlcFQXWZOg_Nexa-23">
          <mxGeometry relative="1" as="geometry">
            <mxPoint x="620" y="84.5" as="sourcePoint" />
            <mxPoint x="530" y="84.5" as="targetPoint" />
          </mxGeometry>
        </mxCell>
        <mxCell id="73OWAqlcFQXWZOg_Nexa-49" style="edgeStyle=orthogonalEdgeStyle;rounded=0;orthogonalLoop=1;jettySize=auto;html=1;exitX=0.5;exitY=0;exitDx=0;exitDy=0;entryX=0.5;entryY=1;entryDx=0;entryDy=0;" edge="1" parent="1" source="73OWAqlcFQXWZOg_Nexa-35" target="73OWAqlcFQXWZOg_Nexa-33">
          <mxGeometry relative="1" as="geometry" />
        </mxCell>
        <mxCell id="73OWAqlcFQXWZOg_Nexa-35" value="Fleur" style="swimlane;fontStyle=1;align=center;verticalAlign=top;childLayout=stackLayout;horizontal=1;startSize=26;horizontalStack=0;resizeParent=1;resizeParentMax=0;resizeLast=0;collapsible=1;marginBottom=0;whiteSpace=wrap;html=1;" vertex="1" parent="1">
          <mxGeometry x="550" y="237" width="160" height="86" as="geometry" />
        </mxCell>
        <mxCell id="73OWAqlcFQXWZOg_Nexa-36" value="-QuantitÃ©Pollen : int" style="text;strokeColor=none;fillColor=none;align=left;verticalAlign=top;spacingLeft=4;spacingRight=4;overflow=hidden;rotatable=0;points=[[0,0.5],[1,0.5]];portConstraint=eastwest;whiteSpace=wrap;html=1;" vertex="1" parent="73OWAqlcFQXWZOg_Nexa-35">
          <mxGeometry y="26" width="160" height="26" as="geometry" />
        </mxCell>
        <mxCell id="73OWAqlcFQXWZOg_Nexa-37" value="" style="line;strokeWidth=1;fillColor=none;align=left;verticalAlign=middle;spacingTop=-1;spacingLeft=3;spacingRight=3;rotatable=0;labelPosition=right;points=[];portConstraint=eastwest;strokeColor=inherit;" vertex="1" parent="73OWAqlcFQXWZOg_Nexa-35">
          <mxGeometry y="52" width="160" height="8" as="geometry" />
        </mxCell>
        <mxCell id="73OWAqlcFQXWZOg_Nexa-38" value="+ method(type): type" style="text;strokeColor=none;fillColor=none;align=left;verticalAlign=top;spacingLeft=4;spacingRight=4;overflow=hidden;rotatable=0;points=[[0,0.5],[1,0.5]];portConstraint=eastwest;whiteSpace=wrap;html=1;" vertex="1" parent="73OWAqlcFQXWZOg_Nexa-35">
          <mxGeometry y="60" width="160" height="26" as="geometry" />
        </mxCell>
        <mxCell id="73OWAqlcFQXWZOg_Nexa-51" style="edgeStyle=orthogonalEdgeStyle;rounded=0;orthogonalLoop=1;jettySize=auto;html=1;exitX=0.5;exitY=0;exitDx=0;exitDy=0;entryX=0.5;entryY=1;entryDx=0;entryDy=0;" edge="1" parent="1" source="73OWAqlcFQXWZOg_Nexa-39" target="73OWAqlcFQXWZOg_Nexa-33">
          <mxGeometry relative="1" as="geometry" />
        </mxCell>
        <mxCell id="73OWAqlcFQXWZOg_Nexa-39" value="Ruche" style="swimlane;fontStyle=1;align=center;verticalAlign=top;childLayout=stackLayout;horizontal=1;startSize=26;horizontalStack=0;resizeParent=1;resizeParentMax=0;resizeLast=0;collapsible=1;marginBottom=0;whiteSpace=wrap;html=1;" vertex="1" parent="1">
          <mxGeometry x="730" y="237" width="160" height="94" as="geometry" />
        </mxCell>
        <mxCell id="73OWAqlcFQXWZOg_Nexa-40" value="-QuantitÃ©Miel : int" style="text;strokeColor=none;fillColor=none;align=left;verticalAlign=top;spacingLeft=4;spacingRight=4;overflow=hidden;rotatable=0;points=[[0,0.5],[1,0.5]];portConstraint=eastwest;whiteSpace=wrap;html=1;" vertex="1" parent="73OWAqlcFQXWZOg_Nexa-39">
          <mxGeometry y="26" width="160" height="34" as="geometry" />
        </mxCell>
        <mxCell id="73OWAqlcFQXWZOg_Nexa-41" value="" style="line;strokeWidth=1;fillColor=none;align=left;verticalAlign=middle;spacingTop=-1;spacingLeft=3;spacingRight=3;rotatable=0;labelPosition=right;points=[];portConstraint=eastwest;strokeColor=inherit;" vertex="1" parent="73OWAqlcFQXWZOg_Nexa-39">
          <mxGeometry y="60" width="160" height="8" as="geometry" />
        </mxCell>
        <mxCell id="73OWAqlcFQXWZOg_Nexa-42" value="+CheckQuantity()" style="text;strokeColor=none;fillColor=none;align=left;verticalAlign=top;spacingLeft=4;spacingRight=4;overflow=hidden;rotatable=0;points=[[0,0.5],[1,0.5]];portConstraint=eastwest;whiteSpace=wrap;html=1;" vertex="1" parent="73OWAqlcFQXWZOg_Nexa-39">
          <mxGeometry y="68" width="160" height="26" as="geometry" />
        </mxCell>
        <mxCell id="73OWAqlcFQXWZOg_Nexa-43" value="Reine" style="swimlane;fontStyle=1;align=center;verticalAlign=top;childLayout=stackLayout;horizontal=1;startSize=26;horizontalStack=0;resizeParent=1;resizeParentMax=0;resizeLast=0;collapsible=1;marginBottom=0;whiteSpace=wrap;html=1;" vertex="1" parent="1">
          <mxGeometry x="940" y="241" width="160" height="74" as="geometry" />
        </mxCell>
        <mxCell id="73OWAqlcFQXWZOg_Nexa-45" value="" style="line;strokeWidth=1;fillColor=none;align=left;verticalAlign=middle;spacingTop=-1;spacingLeft=3;spacingRight=3;rotatable=0;labelPosition=right;points=[];portConstraint=eastwest;strokeColor=inherit;" vertex="1" parent="73OWAqlcFQXWZOg_Nexa-43">
          <mxGeometry y="26" width="160" height="8" as="geometry" />
        </mxCell>
        <mxCell id="73OWAqlcFQXWZOg_Nexa-46" value="+CrÃ©erAbeille()&lt;div&gt;+Mourir()&lt;/div&gt;" style="text;strokeColor=none;fillColor=none;align=left;verticalAlign=top;spacingLeft=4;spacingRight=4;overflow=hidden;rotatable=0;points=[[0,0.5],[1,0.5]];portConstraint=eastwest;whiteSpace=wrap;html=1;" vertex="1" parent="73OWAqlcFQXWZOg_Nexa-43">
          <mxGeometry y="34" width="160" height="40" as="geometry" />
        </mxCell>
        <mxCell id="73OWAqlcFQXWZOg_Nexa-48" style="edgeStyle=orthogonalEdgeStyle;rounded=0;orthogonalLoop=1;jettySize=auto;html=1;exitX=0;exitY=0.5;exitDx=0;exitDy=0;entryX=1;entryY=0.5;entryDx=0;entryDy=0;endArrow=diamondThin;endFill=1;endSize=16;" edge="1" parent="1" target="73OWAqlcFQXWZOg_Nexa-40">
          <mxGeometry relative="1" as="geometry">
            <mxPoint x="940" y="280" as="sourcePoint" />
          </mxGeometry>
        </mxCell>
        <mxCell id="73OWAqlcFQXWZOg_Nexa-52" value="Â«interfaceÂ»&lt;br&gt;&lt;b&gt;BeeBehavior&lt;/b&gt;" style="html=1;whiteSpace=wrap;" vertex="1" parent="1">
          <mxGeometry x="265" y="680" width="110" height="50" as="geometry" />
        </mxCell>
        <mxCell id="73OWAqlcFQXWZOg_Nexa-53" style="edgeStyle=orthogonalEdgeStyle;rounded=0;orthogonalLoop=1;jettySize=auto;html=1;exitX=0.5;exitY=0;exitDx=0;exitDy=0;entryX=0.495;entryY=1.01;entryDx=0;entryDy=0;entryPerimeter=0;endArrow=diamondThin;endFill=1;endSize=16;" edge="1" parent="1" source="73OWAqlcFQXWZOg_Nexa-52" target="73OWAqlcFQXWZOg_Nexa-11">
          <mxGeometry relative="1" as="geometry" />
        </mxCell>
        <mxCell id="73OWAqlcFQXWZOg_Nexa-55" style="edgeStyle=orthogonalEdgeStyle;rounded=0;orthogonalLoop=1;jettySize=auto;html=1;exitX=0.5;exitY=0;exitDx=0;exitDy=0;entryX=0.5;entryY=1;entryDx=0;entryDy=0;" edge="1" parent="1" source="73OWAqlcFQXWZOg_Nexa-54" target="73OWAqlcFQXWZOg_Nexa-52">
          <mxGeometry relative="1" as="geometry" />
        </mxCell>
        <mxCell id="73OWAqlcFQXWZOg_Nexa-54" value="&lt;i&gt;ConcreteBehavior&lt;/i&gt;&lt;div&gt;Abeille ouvriÃ¨re&lt;/div&gt;" style="html=1;whiteSpace=wrap;" vertex="1" parent="1">
          <mxGeometry x="190" y="790" width="110" height="50" as="geometry" />
        </mxCell>
        <mxCell id="73OWAqlcFQXWZOg_Nexa-57" style="edgeStyle=orthogonalEdgeStyle;rounded=0;orthogonalLoop=1;jettySize=auto;html=1;exitX=0.5;exitY=0;exitDx=0;exitDy=0;" edge="1" parent="1" source="73OWAqlcFQXWZOg_Nexa-56">
          <mxGeometry relative="1" as="geometry">
            <mxPoint x="320" y="730" as="targetPoint" />
          </mxGeometry>
        </mxCell>
        <mxCell id="73OWAqlcFQXWZOg_Nexa-56" value="&lt;i&gt;ConcreteBehavior&lt;/i&gt;&lt;div&gt;Abeille soldat&lt;/div&gt;" style="html=1;whiteSpace=wrap;" vertex="1" parent="1">
          <mxGeometry x="330" y="790" width="110" height="50" as="geometry" />
        </mxCell>
      </root>
    </mxGraphModel>
  </diagram>
</mxfile>
